<mxfile host="app.diagrams.net" agent="Mozilla/5.0 (Windows NT 10.0; Win64; x64) AppleWebKit/537.36 (KHTML, like Gecko) Chrome/137.0.0.0 Safari/537.36" version="27.1.6">
  <diagram name="Page-1" id="VCvw8WFeqF1pdbuDinCS">
    <mxGraphModel dx="1018" dy="646" grid="1" gridSize="10" guides="1" tooltips="1" connect="1" arrows="1" fold="1" page="1" pageScale="1" pageWidth="827" pageHeight="1169" background="#ffffff" math="0" shadow="0">
      <root>
        <mxCell id="0" />
        <mxCell id="1" parent="0" />
        <mxCell id="c6fn7dHWqA4yVvzraWag-7" style="edgeStyle=orthogonalEdgeStyle;rounded=0;sketch=1;hachureGap=4;jiggle=2;curveFitting=1;orthogonalLoop=1;jettySize=auto;html=1;entryX=0.5;entryY=0;entryDx=0;entryDy=0;fontFamily=Architects Daughter;fontSource=https%3A%2F%2Ffonts.googleapis.com%2Fcss%3Ffamily%3DArchitects%2BDaughter;" edge="1" parent="1" source="c6fn7dHWqA4yVvzraWag-1" target="c6fn7dHWqA4yVvzraWag-6">
          <mxGeometry relative="1" as="geometry" />
        </mxCell>
        <mxCell id="c6fn7dHWqA4yVvzraWag-1" value="&lt;font&gt;&lt;span style=&quot;&quot;&gt;START&lt;/span&gt;&lt;/font&gt;" style="rounded=1;whiteSpace=wrap;html=1;arcSize=50;fillColor=#d5e8d4;strokeColor=#82b366;fontStyle=1;sketch=1;curveFitting=1;jiggle=2;fontFamily=Single Day;fontSource=https%3A%2F%2Ffonts.googleapis.com%2Fcss%3Ffamily%3DSingle%2BDay;fontSize=18;" vertex="1" parent="1">
          <mxGeometry x="340" y="40" width="120" height="60" as="geometry" />
        </mxCell>
        <mxCell id="c6fn7dHWqA4yVvzraWag-9" style="edgeStyle=orthogonalEdgeStyle;rounded=0;sketch=1;hachureGap=4;jiggle=2;curveFitting=1;orthogonalLoop=1;jettySize=auto;html=1;entryX=0.5;entryY=0;entryDx=0;entryDy=0;fontFamily=Architects Daughter;fontSource=https%3A%2F%2Ffonts.googleapis.com%2Fcss%3Ffamily%3DArchitects%2BDaughter;" edge="1" parent="1" source="c6fn7dHWqA4yVvzraWag-6" target="c6fn7dHWqA4yVvzraWag-8">
          <mxGeometry relative="1" as="geometry" />
        </mxCell>
        <mxCell id="c6fn7dHWqA4yVvzraWag-6" value="Server init" style="rounded=1;whiteSpace=wrap;html=1;fillColor=#fff2cc;strokeColor=#d6b656;sketch=1;curveFitting=1;jiggle=2;fontFamily=Single Day;fontSource=https%3A%2F%2Ffonts.googleapis.com%2Fcss%3Ffamily%3DSingle%2BDay;fontSize=16;" vertex="1" parent="1">
          <mxGeometry x="347" y="150" width="106" height="50" as="geometry" />
        </mxCell>
        <mxCell id="c6fn7dHWqA4yVvzraWag-15" style="edgeStyle=orthogonalEdgeStyle;rounded=0;sketch=1;hachureGap=4;jiggle=2;curveFitting=1;orthogonalLoop=1;jettySize=auto;html=1;entryX=0.5;entryY=0;entryDx=0;entryDy=0;fontFamily=Architects Daughter;fontSource=https%3A%2F%2Ffonts.googleapis.com%2Fcss%3Ffamily%3DArchitects%2BDaughter;" edge="1" parent="1" source="c6fn7dHWqA4yVvzraWag-8" target="c6fn7dHWqA4yVvzraWag-12">
          <mxGeometry relative="1" as="geometry" />
        </mxCell>
        <mxCell id="c6fn7dHWqA4yVvzraWag-8" value="Server klar" style="rounded=1;whiteSpace=wrap;html=1;fillColor=#fff2cc;strokeColor=#d6b656;sketch=1;curveFitting=1;jiggle=2;fontFamily=Single Day;fontSource=https%3A%2F%2Ffonts.googleapis.com%2Fcss%3Ffamily%3DSingle%2BDay;fontSize=16;" vertex="1" parent="1">
          <mxGeometry x="347" y="250" width="106" height="50" as="geometry" />
        </mxCell>
        <mxCell id="c6fn7dHWqA4yVvzraWag-46" style="edgeStyle=orthogonalEdgeStyle;rounded=0;sketch=1;hachureGap=4;jiggle=2;curveFitting=1;orthogonalLoop=1;jettySize=auto;html=1;fontFamily=Architects Daughter;fontSource=https%3A%2F%2Ffonts.googleapis.com%2Fcss%3Ffamily%3DArchitects%2BDaughter;" edge="1" parent="1" source="c6fn7dHWqA4yVvzraWag-10">
          <mxGeometry relative="1" as="geometry">
            <mxPoint x="233" y="660" as="targetPoint" />
          </mxGeometry>
        </mxCell>
        <mxCell id="c6fn7dHWqA4yVvzraWag-10" value="Send data til computeren" style="shape=parallelogram;html=1;strokeWidth=2;perimeter=parallelogramPerimeter;whiteSpace=wrap;rounded=1;arcSize=12;size=0.23;sketch=1;hachureGap=4;jiggle=2;curveFitting=1;fontFamily=Architects Daughter;fontSource=https%3A%2F%2Ffonts.googleapis.com%2Fcss%3Ffamily%3DArchitects%2BDaughter;fillColor=#FFCAE9;strokeColor=#FFCAE9;" vertex="1" parent="1">
          <mxGeometry x="183" y="560" width="100" height="60" as="geometry" />
        </mxCell>
        <mxCell id="c6fn7dHWqA4yVvzraWag-16" style="edgeStyle=orthogonalEdgeStyle;rounded=0;sketch=1;hachureGap=4;jiggle=2;curveFitting=1;orthogonalLoop=1;jettySize=auto;html=1;fontFamily=Architects Daughter;fontSource=https%3A%2F%2Ffonts.googleapis.com%2Fcss%3Ffamily%3DArchitects%2BDaughter;entryX=0.5;entryY=0;entryDx=0;entryDy=0;entryPerimeter=0;" edge="1" parent="1" source="c6fn7dHWqA4yVvzraWag-12" target="c6fn7dHWqA4yVvzraWag-26">
          <mxGeometry relative="1" as="geometry">
            <mxPoint x="232.99999999999977" y="440" as="targetPoint" />
          </mxGeometry>
        </mxCell>
        <mxCell id="c6fn7dHWqA4yVvzraWag-19" value="Tilgå data lagret&amp;nbsp;&lt;div&gt;på server&lt;/div&gt;" style="edgeLabel;html=1;align=center;verticalAlign=middle;resizable=0;points=[];sketch=1;hachureGap=4;jiggle=2;curveFitting=1;fontFamily=Architects Daughter;fontSource=https%3A%2F%2Ffonts.googleapis.com%2Fcss%3Ffamily%3DArchitects%2BDaughter;" vertex="1" connectable="0" parent="c6fn7dHWqA4yVvzraWag-16">
          <mxGeometry x="-0.289" y="-1" relative="1" as="geometry">
            <mxPoint x="21" y="7" as="offset" />
          </mxGeometry>
        </mxCell>
        <mxCell id="c6fn7dHWqA4yVvzraWag-18" style="edgeStyle=orthogonalEdgeStyle;rounded=0;sketch=1;hachureGap=4;jiggle=2;curveFitting=1;orthogonalLoop=1;jettySize=auto;html=1;fontFamily=Architects Daughter;fontSource=https%3A%2F%2Ffonts.googleapis.com%2Fcss%3Ffamily%3DArchitects%2BDaughter;entryX=0.5;entryY=0;entryDx=0;entryDy=0;entryPerimeter=0;" edge="1" parent="1" source="c6fn7dHWqA4yVvzraWag-12" target="c6fn7dHWqA4yVvzraWag-29">
          <mxGeometry relative="1" as="geometry">
            <mxPoint x="567" y="440" as="targetPoint" />
          </mxGeometry>
        </mxCell>
        <mxCell id="c6fn7dHWqA4yVvzraWag-20" value="Send data til server" style="edgeLabel;html=1;align=center;verticalAlign=middle;resizable=0;points=[];sketch=1;hachureGap=4;jiggle=2;curveFitting=1;fontFamily=Architects Daughter;fontSource=https%3A%2F%2Ffonts.googleapis.com%2Fcss%3Ffamily%3DArchitects%2BDaughter;" vertex="1" connectable="0" parent="c6fn7dHWqA4yVvzraWag-18">
          <mxGeometry x="-0.5265" y="1" relative="1" as="geometry">
            <mxPoint x="15" y="1" as="offset" />
          </mxGeometry>
        </mxCell>
        <mxCell id="c6fn7dHWqA4yVvzraWag-36" style="edgeStyle=orthogonalEdgeStyle;rounded=0;sketch=1;hachureGap=4;jiggle=2;curveFitting=1;orthogonalLoop=1;jettySize=auto;html=1;entryX=0.5;entryY=0;entryDx=0;entryDy=0;fontFamily=Architects Daughter;fontSource=https%3A%2F%2Ffonts.googleapis.com%2Fcss%3Ffamily%3DArchitects%2BDaughter;" edge="1" parent="1" source="c6fn7dHWqA4yVvzraWag-12" target="c6fn7dHWqA4yVvzraWag-33">
          <mxGeometry relative="1" as="geometry" />
        </mxCell>
        <mxCell id="c6fn7dHWqA4yVvzraWag-40" value="Forkert request" style="edgeLabel;html=1;align=center;verticalAlign=middle;resizable=0;points=[];sketch=1;hachureGap=4;jiggle=2;curveFitting=1;fontFamily=Architects Daughter;fontSource=https%3A%2F%2Ffonts.googleapis.com%2Fcss%3Ffamily%3DArchitects%2BDaughter;" vertex="1" connectable="0" parent="c6fn7dHWqA4yVvzraWag-36">
          <mxGeometry x="-0.3316" y="1" relative="1" as="geometry">
            <mxPoint as="offset" />
          </mxGeometry>
        </mxCell>
        <mxCell id="c6fn7dHWqA4yVvzraWag-12" value="Server request" style="rhombus;whiteSpace=wrap;html=1;sketch=1;hachureGap=4;jiggle=2;curveFitting=1;fontFamily=Architects Daughter;fontSource=https%3A%2F%2Ffonts.googleapis.com%2Fcss%3Ffamily%3DArchitects%2BDaughter;fillColor=#e1d5e7;strokeColor=#9673a6;" vertex="1" parent="1">
          <mxGeometry x="360" y="340" width="80" height="80" as="geometry" />
        </mxCell>
        <mxCell id="c6fn7dHWqA4yVvzraWag-23" style="edgeStyle=orthogonalEdgeStyle;rounded=0;sketch=1;hachureGap=4;jiggle=2;curveFitting=1;orthogonalLoop=1;jettySize=auto;html=1;entryX=0.5;entryY=0;entryDx=0;entryDy=0;fontFamily=Architects Daughter;fontSource=https%3A%2F%2Ffonts.googleapis.com%2Fcss%3Ffamily%3DArchitects%2BDaughter;exitX=0.5;exitY=1;exitDx=0;exitDy=0;" edge="1" parent="1" source="c6fn7dHWqA4yVvzraWag-26" target="c6fn7dHWqA4yVvzraWag-10">
          <mxGeometry relative="1" as="geometry">
            <mxPoint x="233" y="490" as="sourcePoint" />
          </mxGeometry>
        </mxCell>
        <mxCell id="c6fn7dHWqA4yVvzraWag-35" style="edgeStyle=orthogonalEdgeStyle;rounded=0;sketch=1;hachureGap=4;jiggle=2;curveFitting=1;orthogonalLoop=1;jettySize=auto;html=1;entryX=0;entryY=0.5;entryDx=0;entryDy=0;fontFamily=Architects Daughter;fontSource=https%3A%2F%2Ffonts.googleapis.com%2Fcss%3Ffamily%3DArchitects%2BDaughter;" edge="1" parent="1" source="c6fn7dHWqA4yVvzraWag-26" target="c6fn7dHWqA4yVvzraWag-33">
          <mxGeometry relative="1" as="geometry" />
        </mxCell>
        <mxCell id="c6fn7dHWqA4yVvzraWag-26" value="Tjekker permissions&lt;div&gt;&lt;br&gt;&lt;/div&gt;" style="rhombus;whiteSpace=wrap;html=1;sketch=1;hachureGap=4;jiggle=2;curveFitting=1;fontFamily=Architects Daughter;fontSource=https%3A%2F%2Ffonts.googleapis.com%2Fcss%3Ffamily%3DArchitects%2BDaughter;fillColor=#e1d5e7;strokeColor=#9673a6;" vertex="1" parent="1">
          <mxGeometry x="193" y="440" width="80" height="80" as="geometry" />
        </mxCell>
        <mxCell id="c6fn7dHWqA4yVvzraWag-44" style="edgeStyle=orthogonalEdgeStyle;rounded=0;sketch=1;hachureGap=4;jiggle=2;curveFitting=1;orthogonalLoop=1;jettySize=auto;html=1;fontFamily=Architects Daughter;fontSource=https%3A%2F%2Ffonts.googleapis.com%2Fcss%3Ffamily%3DArchitects%2BDaughter;entryX=0;entryY=0.5;entryDx=0;entryDy=0;" edge="1" parent="1" target="c6fn7dHWqA4yVvzraWag-43">
          <mxGeometry relative="1" as="geometry">
            <mxPoint x="130" y="300" as="targetPoint" />
            <mxPoint x="567" y="660" as="sourcePoint" />
            <Array as="points">
              <mxPoint x="567" y="660" />
              <mxPoint x="130" y="660" />
              <mxPoint x="130" y="275" />
            </Array>
          </mxGeometry>
        </mxCell>
        <mxCell id="c6fn7dHWqA4yVvzraWag-47" style="edgeStyle=orthogonalEdgeStyle;rounded=0;sketch=1;hachureGap=4;jiggle=2;curveFitting=1;orthogonalLoop=1;jettySize=auto;html=1;fontFamily=Architects Daughter;fontSource=https%3A%2F%2Ffonts.googleapis.com%2Fcss%3Ffamily%3DArchitects%2BDaughter;" edge="1" parent="1">
          <mxGeometry relative="1" as="geometry">
            <mxPoint x="567" y="660" as="targetPoint" />
            <mxPoint x="567.0344827586207" y="620" as="sourcePoint" />
          </mxGeometry>
        </mxCell>
        <mxCell id="c6fn7dHWqA4yVvzraWag-27" value="Lagre dataen" style="shape=parallelogram;html=1;strokeWidth=2;perimeter=parallelogramPerimeter;whiteSpace=wrap;rounded=1;arcSize=12;size=0.23;sketch=1;hachureGap=4;jiggle=2;curveFitting=1;fontFamily=Architects Daughter;fontSource=https%3A%2F%2Ffonts.googleapis.com%2Fcss%3Ffamily%3DArchitects%2BDaughter;fillColor=#FFCAE9;strokeColor=#FFCAE9;" vertex="1" parent="1">
          <mxGeometry x="517" y="560" width="100" height="60" as="geometry" />
        </mxCell>
        <mxCell id="c6fn7dHWqA4yVvzraWag-28" style="edgeStyle=orthogonalEdgeStyle;rounded=0;sketch=1;hachureGap=4;jiggle=2;curveFitting=1;orthogonalLoop=1;jettySize=auto;html=1;entryX=0.5;entryY=0;entryDx=0;entryDy=0;fontFamily=Architects Daughter;fontSource=https%3A%2F%2Ffonts.googleapis.com%2Fcss%3Ffamily%3DArchitects%2BDaughter;exitX=0.5;exitY=1;exitDx=0;exitDy=0;" edge="1" parent="1" source="c6fn7dHWqA4yVvzraWag-29" target="c6fn7dHWqA4yVvzraWag-27">
          <mxGeometry relative="1" as="geometry">
            <mxPoint x="567" y="490" as="sourcePoint" />
          </mxGeometry>
        </mxCell>
        <mxCell id="c6fn7dHWqA4yVvzraWag-30" value="Permission granted" style="edgeLabel;html=1;align=center;verticalAlign=middle;resizable=0;points=[];sketch=1;hachureGap=4;jiggle=2;curveFitting=1;fontFamily=Architects Daughter;fontSource=https%3A%2F%2Ffonts.googleapis.com%2Fcss%3Ffamily%3DArchitects%2BDaughter;" vertex="1" connectable="0" parent="c6fn7dHWqA4yVvzraWag-28">
          <mxGeometry x="-0.4476" y="-1" relative="1" as="geometry">
            <mxPoint x="1" y="5" as="offset" />
          </mxGeometry>
        </mxCell>
        <mxCell id="c6fn7dHWqA4yVvzraWag-34" style="edgeStyle=orthogonalEdgeStyle;rounded=0;sketch=1;hachureGap=4;jiggle=2;curveFitting=1;orthogonalLoop=1;jettySize=auto;html=1;entryX=1;entryY=0.5;entryDx=0;entryDy=0;fontFamily=Architects Daughter;fontSource=https%3A%2F%2Ffonts.googleapis.com%2Fcss%3Ffamily%3DArchitects%2BDaughter;" edge="1" parent="1" source="c6fn7dHWqA4yVvzraWag-29" target="c6fn7dHWqA4yVvzraWag-33">
          <mxGeometry relative="1" as="geometry" />
        </mxCell>
        <mxCell id="c6fn7dHWqA4yVvzraWag-41" value="Permission&lt;div&gt;Denied&lt;/div&gt;" style="edgeLabel;html=1;align=center;verticalAlign=middle;resizable=0;points=[];sketch=1;hachureGap=4;jiggle=2;curveFitting=1;fontFamily=Architects Daughter;fontSource=https%3A%2F%2Ffonts.googleapis.com%2Fcss%3Ffamily%3DArchitects%2BDaughter;" vertex="1" connectable="0" parent="c6fn7dHWqA4yVvzraWag-34">
          <mxGeometry x="-0.0225" y="-3" relative="1" as="geometry">
            <mxPoint x="2" y="9" as="offset" />
          </mxGeometry>
        </mxCell>
        <mxCell id="c6fn7dHWqA4yVvzraWag-29" value="Tjekker permissions&lt;div&gt;&lt;br&gt;&lt;/div&gt;" style="rhombus;whiteSpace=wrap;html=1;sketch=1;hachureGap=4;jiggle=2;curveFitting=1;fontFamily=Architects Daughter;fontSource=https%3A%2F%2Ffonts.googleapis.com%2Fcss%3Ffamily%3DArchitects%2BDaughter;fillColor=#e1d5e7;strokeColor=#9673a6;" vertex="1" parent="1">
          <mxGeometry x="527" y="440" width="80" height="80" as="geometry" />
        </mxCell>
        <mxCell id="c6fn7dHWqA4yVvzraWag-31" value="Permission granted" style="edgeLabel;html=1;align=center;verticalAlign=middle;resizable=0;points=[];sketch=1;hachureGap=4;jiggle=2;curveFitting=1;fontFamily=Architects Daughter;fontSource=https%3A%2F%2Ffonts.googleapis.com%2Fcss%3Ffamily%3DArchitects%2BDaughter;" vertex="1" connectable="0" parent="1">
          <mxGeometry x="233" y="535" as="geometry" />
        </mxCell>
        <mxCell id="c6fn7dHWqA4yVvzraWag-39" style="edgeStyle=orthogonalEdgeStyle;rounded=0;sketch=1;hachureGap=4;jiggle=2;curveFitting=1;orthogonalLoop=1;jettySize=auto;html=1;fontFamily=Architects Daughter;fontSource=https%3A%2F%2Ffonts.googleapis.com%2Fcss%3Ffamily%3DArchitects%2BDaughter;" edge="1" parent="1" source="c6fn7dHWqA4yVvzraWag-32" target="c6fn7dHWqA4yVvzraWag-8">
          <mxGeometry relative="1" as="geometry" />
        </mxCell>
        <mxCell id="c6fn7dHWqA4yVvzraWag-32" value="Server maelder fejlkode" style="rounded=1;whiteSpace=wrap;html=1;fillColor=#fff2cc;strokeColor=#d6b656;sketch=1;curveFitting=1;jiggle=2;fontFamily=Single Day;fontSource=https%3A%2F%2Ffonts.googleapis.com%2Fcss%3Ffamily%3DSingle%2BDay;fontSize=16;" vertex="1" parent="1">
          <mxGeometry x="511" y="250" width="106" height="50" as="geometry" />
        </mxCell>
        <mxCell id="c6fn7dHWqA4yVvzraWag-52" style="edgeStyle=orthogonalEdgeStyle;rounded=0;sketch=1;hachureGap=4;jiggle=2;curveFitting=1;orthogonalLoop=1;jettySize=auto;html=1;fontFamily=Architects Daughter;fontSource=https%3A%2F%2Ffonts.googleapis.com%2Fcss%3Ffamily%3DArchitects%2BDaughter;entryX=0.5;entryY=1;entryDx=0;entryDy=0;dashed=1;dashPattern=1 4;fillColor=#dae8fc;strokeColor=#6c8ebf;jumpStyle=gap;jumpSize=30;strokeWidth=1;" edge="1" parent="1" source="c6fn7dHWqA4yVvzraWag-33" target="c6fn7dHWqA4yVvzraWag-37">
          <mxGeometry relative="1" as="geometry">
            <mxPoint x="400" y="550" as="targetPoint" />
            <Array as="points">
              <mxPoint x="400" y="520" />
              <mxPoint x="673" y="520" />
            </Array>
          </mxGeometry>
        </mxCell>
        <mxCell id="c6fn7dHWqA4yVvzraWag-33" value="&lt;b&gt;A&lt;/b&gt;" style="ellipse;whiteSpace=wrap;html=1;aspect=fixed;sketch=1;hachureGap=4;jiggle=2;curveFitting=1;fontFamily=Architects Daughter;fontSource=https%3A%2F%2Ffonts.googleapis.com%2Fcss%3Ffamily%3DArchitects%2BDaughter;fillColor=#dae8fc;strokeColor=#6c8ebf;" vertex="1" parent="1">
          <mxGeometry x="387.5" y="467.5" width="25" height="25" as="geometry" />
        </mxCell>
        <mxCell id="c6fn7dHWqA4yVvzraWag-38" style="edgeStyle=orthogonalEdgeStyle;rounded=0;sketch=1;hachureGap=4;jiggle=2;curveFitting=1;orthogonalLoop=1;jettySize=auto;html=1;fontFamily=Architects Daughter;fontSource=https%3A%2F%2Ffonts.googleapis.com%2Fcss%3Ffamily%3DArchitects%2BDaughter;" edge="1" parent="1" source="c6fn7dHWqA4yVvzraWag-37" target="c6fn7dHWqA4yVvzraWag-32">
          <mxGeometry relative="1" as="geometry" />
        </mxCell>
        <mxCell id="c6fn7dHWqA4yVvzraWag-37" value="&lt;b&gt;A&lt;/b&gt;" style="ellipse;whiteSpace=wrap;html=1;aspect=fixed;sketch=1;hachureGap=4;jiggle=2;curveFitting=1;fontFamily=Architects Daughter;fontSource=https%3A%2F%2Ffonts.googleapis.com%2Fcss%3Ffamily%3DArchitects%2BDaughter;fillColor=#dae8fc;strokeColor=#6c8ebf;" vertex="1" parent="1">
          <mxGeometry x="660" y="262.5" width="25" height="25" as="geometry" />
        </mxCell>
        <mxCell id="c6fn7dHWqA4yVvzraWag-42" value="Permission&lt;div&gt;Denied&lt;/div&gt;" style="edgeLabel;html=1;align=center;verticalAlign=middle;resizable=0;points=[];sketch=1;hachureGap=4;jiggle=2;curveFitting=1;fontFamily=Architects Daughter;fontSource=https%3A%2F%2Ffonts.googleapis.com%2Fcss%3Ffamily%3DArchitects%2BDaughter;" vertex="1" connectable="0" parent="1">
          <mxGeometry x="320" y="486.5" as="geometry" />
        </mxCell>
        <mxCell id="c6fn7dHWqA4yVvzraWag-48" style="edgeStyle=orthogonalEdgeStyle;rounded=0;sketch=1;hachureGap=4;jiggle=2;curveFitting=1;orthogonalLoop=1;jettySize=auto;html=1;entryX=0;entryY=0.5;entryDx=0;entryDy=0;fontFamily=Architects Daughter;fontSource=https%3A%2F%2Ffonts.googleapis.com%2Fcss%3Ffamily%3DArchitects%2BDaughter;" edge="1" parent="1" source="c6fn7dHWqA4yVvzraWag-43" target="c6fn7dHWqA4yVvzraWag-8">
          <mxGeometry relative="1" as="geometry" />
        </mxCell>
        <mxCell id="c6fn7dHWqA4yVvzraWag-43" value="Server maelder success kode" style="rounded=1;whiteSpace=wrap;html=1;fillColor=#fff2cc;strokeColor=#d6b656;sketch=1;curveFitting=1;jiggle=2;fontFamily=Single Day;fontSource=https%3A%2F%2Ffonts.googleapis.com%2Fcss%3Ffamily%3DSingle%2BDay;fontSize=16;" vertex="1" parent="1">
          <mxGeometry x="183" y="250" width="106" height="50" as="geometry" />
        </mxCell>
      </root>
    </mxGraphModel>
  </diagram>
</mxfile>
